<svg xmlns="http://www.w3.org/2000/svg" width="720" height="128" viewBox="0 0 720 128" role="img" aria-label="NuaConnects">
    <g transform="translate(8 8) scale(.42)"><defs><linearGradient id="nuaconnects-paint" x1="38" y1="64" x2="218" y2="192" gradientUnits="userSpaceOnUse"><stop stop-color="#EF3F43"/><stop offset="1" stop-color="#FF655C"/></linearGradient></defs>
    <path d="M119 78C101 57 70 55 49 72C23 93 19 133 38 160C55 184 88 191 111 173L134 154" fill="none" stroke="url(#nuaconnects-paint)" stroke-width="24" stroke-linecap="butt" stroke-linejoin="round"/>
    <path d="M137 78L114 102M137 78C155 57 186 55 207 72C233 93 237 133 218 160C201 184 168 191 145 173L122 151" fill="none" stroke="url(#nuaconnects-paint)" stroke-width="24" stroke-linecap="butt" stroke-linejoin="round"/>
    <path d="M128 92L166 113V151L128 172L90 151V113L128 92ZM128 92V132M90 113L128 132L166 113M128 132V172" fill="none" stroke="url(#nuaconnects-paint)" stroke-width="7" stroke-linecap="round" stroke-linejoin="round"/>
    <circle cx="128" cy="92" r="8" fill="#F9FBFA" stroke="url(#nuaconnects-paint)" stroke-width="6"/>
    <circle cx="90" cy="113" r="8" fill="#F9FBFA" stroke="url(#nuaconnects-paint)" stroke-width="6"/>
    <circle cx="166" cy="113" r="8" fill="#F9FBFA" stroke="url(#nuaconnects-paint)" stroke-width="6"/>
    <circle cx="90" cy="151" r="8" fill="#F9FBFA" stroke="url(#nuaconnects-paint)" stroke-width="6"/>
    <circle cx="166" cy="151" r="8" fill="#F9FBFA" stroke="url(#nuaconnects-paint)" stroke-width="6"/>
    <circle cx="128" cy="172" r="8" fill="#F9FBFA" stroke="url(#nuaconnects-paint)" stroke-width="6"/></g>
    <text x="132" y="64" fill="#EF3F43" font-family="Georgia,Times New Roman,serif" font-size="50" font-weight="700">NuaConnects</text>
    <text x="134" y="94" fill="#0A234E" font-family="Arial,Helvetica,sans-serif" font-size="14" font-weight="700">RELATIONSHIP</text></svg>